<svg xmlns="http://www.w3.org/2000/svg" viewBox="0 0 960 560">
  <rect width="960" height="560" rx="16" fill="#F8FAFC" />
  <rect width="960" height="48" rx="16" fill="#FFFFFF" />
  <rect width="960" height="24" fill="#FFFFFF" />
  <circle cx="24" cy="24" r="6" fill="#EF4444" />
  <circle cx="44" cy="24" r="6" fill="#F59E0B" />
  <circle cx="64" cy="24" r="6" fill="#10B981" />
  <rect x="0" y="48" width="220" height="512" fill="#FFFFFF" />
  <rect x="24" y="80" width="140" height="18" rx="4" fill="#6366F1" />
  <rect x="24" y="120" width="172" height="14" rx="4" fill="#E2E8F0" />
  <rect x="24" y="150" width="150" height="14" rx="4" fill="#E2E8F0" />
  <rect x="24" y="180" width="160" height="14" rx="4" fill="#E2E8F0" />
  <rect x="24" y="210" width="140" height="14" rx="4" fill="#E2E8F0" />

  <text x="248" y="100" font-family="Inter, system-ui, sans-serif" font-size="26" font-weight="700" fill="#0F172A">Tableau de bord</text>

  <g font-family="Inter, system-ui, sans-serif">
    <rect x="248" y="124" width="160" height="90" rx="12" fill="#FFFFFF" stroke="#E2E8F0" />
    <text x="264" y="152" font-size="13" fill="#64748B">Projets actifs</text>
    <text x="264" y="188" font-size="28" font-weight="700" fill="#0F172A">5</text>

    <rect x="420" y="124" width="160" height="90" rx="12" fill="#FFFFFF" stroke="#E2E8F0" />
    <text x="436" y="152" font-size="13" fill="#64748B">Tâches actives</text>
    <text x="436" y="188" font-size="28" font-weight="700" fill="#0F172A">60</text>

    <rect x="592" y="124" width="160" height="90" rx="12" fill="#FFFFFF" stroke="#E2E8F0" />
    <text x="608" y="152" font-size="13" fill="#64748B">En retard</text>
    <text x="608" y="188" font-size="28" font-weight="700" fill="#EF4444">18</text>

    <rect x="764" y="124" width="160" height="90" rx="12" fill="#FFFFFF" stroke="#E2E8F0" />
    <text x="780" y="152" font-size="13" fill="#64748B">Terminées</text>
    <text x="780" y="188" font-size="28" font-weight="700" fill="#10B981">2</text>
  </g>

  <rect x="248" y="238" width="330" height="200" rx="12" fill="#FFFFFF" stroke="#E2E8F0" />
  <text x="264" y="264" font-family="Inter, system-ui, sans-serif" font-size="14" font-weight="600" fill="#0F172A">Répartition par statut</text>
  <circle cx="413" cy="345" r="60" fill="none" stroke="#10B981" stroke-width="22" stroke-dasharray="120 260" />
  <circle cx="413" cy="345" r="60" fill="none" stroke="#F59E0B" stroke-width="22" stroke-dasharray="80 260" stroke-dashoffset="-120" />
  <circle cx="413" cy="345" r="60" fill="none" stroke="#64748B" stroke-width="22" stroke-dasharray="60 260" stroke-dashoffset="-200" />

  <rect x="596" y="238" width="328" height="200" rx="12" fill="#FFFFFF" stroke="#E2E8F0" />
  <text x="612" y="264" font-family="Inter, system-ui, sans-serif" font-size="14" font-weight="600" fill="#0F172A">Complétion (30 jours)</text>
  <polyline points="612,400 650,380 690,390 730,350 770,360 810,320 850,330 890,300" fill="none" stroke="#6366F1" stroke-width="4" stroke-linecap="round" stroke-linejoin="round" />

  <rect x="248" y="454" width="676" height="80" rx="12" fill="#FFFFFF" stroke="#E2E8F0" />
  <text x="264" y="480" font-family="Inter, system-ui, sans-serif" font-size="14" font-weight="600" fill="#0F172A">Activité récente</text>
  <rect x="264" y="494" width="500" height="10" rx="5" fill="#E2E8F0" />
  <rect x="264" y="512" width="380" height="10" rx="5" fill="#E2E8F0" />
</svg>
