<svg xmlns="http://www.w3.org/2000/svg" viewBox="0 0 960 560"><rect width="960" height="560" fill="#F8FAFC" rx="16"/><rect width="960" height="48" fill="#FFF" rx="16"/><rect width="960" height="24" fill="#FFF"/><circle cx="24" cy="24" r="6" fill="#EF4444"/><circle cx="44" cy="24" r="6" fill="#F59E0B"/><circle cx="64" cy="24" r="6" fill="#10B981"/><rect width="220" height="512" x="0" y="48" fill="#FFF"/><rect width="140" height="18" x="24" y="80" fill="#6366F1" rx="4"/><rect width="172" height="14" x="24" y="120" fill="#E2E8F0" rx="4"/><rect width="150" height="14" x="24" y="150" fill="#E2E8F0" rx="4"/><rect width="160" height="14" x="24" y="180" fill="#E2E8F0" rx="4"/><rect width="140" height="14" x="24" y="210" fill="#E2E8F0" rx="4"/><text x="248" y="100" fill="#0F172A" font-family="Inter, system-ui, sans-serif" font-size="26" font-weight="700">Tableau de bord</text><g font-family="Inter, system-ui, sans-serif"><rect width="160" height="90" x="248" y="124" fill="#FFF" stroke="#E2E8F0" rx="12"/><text x="264" y="152" fill="#64748B" font-size="13">Projets actifs</text><text x="264" y="188" fill="#0F172A" font-size="28" font-weight="700">5</text><rect width="160" height="90" x="420" y="124" fill="#FFF" stroke="#E2E8F0" rx="12"/><text x="436" y="152" fill="#64748B" font-size="13">Tâches actives</text><text x="436" y="188" fill="#0F172A" font-size="28" font-weight="700">60</text><rect width="160" height="90" x="592" y="124" fill="#FFF" stroke="#E2E8F0" rx="12"/><text x="608" y="152" fill="#64748B" font-size="13">En retard</text><text x="608" y="188" fill="#EF4444" font-size="28" font-weight="700">18</text><rect width="160" height="90" x="764" y="124" fill="#FFF" stroke="#E2E8F0" rx="12"/><text x="780" y="152" fill="#64748B" font-size="13">Terminées</text><text x="780" y="188" fill="#10B981" font-size="28" font-weight="700">2</text></g><rect width="330" height="200" x="248" y="238" fill="#FFF" stroke="#E2E8F0" rx="12"/><text x="264" y="264" fill="#0F172A" font-family="Inter, system-ui, sans-serif" font-size="14" font-weight="600">Répartition par statut</text><circle cx="413" cy="345" r="60" fill="none" stroke="#10B981" stroke-dasharray="120 260" stroke-width="22"/><circle cx="413" cy="345" r="60" fill="none" stroke="#F59E0B" stroke-dasharray="80 260" stroke-dashoffset="-120" stroke-width="22"/><circle cx="413" cy="345" r="60" fill="none" stroke="#64748B" stroke-dasharray="60 260" stroke-dashoffset="-200" stroke-width="22"/><rect width="328" height="200" x="596" y="238" fill="#FFF" stroke="#E2E8F0" rx="12"/><text x="612" y="264" fill="#0F172A" font-family="Inter, system-ui, sans-serif" font-size="14" font-weight="600">Complétion (30 jours)</text><polyline fill="none" stroke="#6366F1" stroke-linecap="round" stroke-linejoin="round" stroke-width="4" points="612 400 650 380 690 390 730 350 770 360 810 320 850 330 890 300"/><rect width="676" height="80" x="248" y="454" fill="#FFF" stroke="#E2E8F0" rx="12"/><text x="264" y="480" fill="#0F172A" font-family="Inter, system-ui, sans-serif" font-size="14" font-weight="600">Activité récente</text><rect width="500" height="10" x="264" y="494" fill="#E2E8F0" rx="5"/><rect width="380" height="10" x="264" y="512" fill="#E2E8F0" rx="5"/></svg>