<svg xmlns="http://www.w3.org/2000/svg" viewBox="0 0 480 300"><rect width="480" height="300" fill="#F8FAFC"/><rect width="480" height="30" fill="#FFF"/><circle cx="16" cy="15" r="4" fill="#EF4444"/><circle cx="30" cy="15" r="4" fill="#F59E0B"/><circle cx="44" cy="15" r="4" fill="#10B981"/><text x="20" y="55" fill="#0F172A" font-family="Inter, system-ui, sans-serif" font-size="18" font-weight="700">Tableau de bord</text><g font-family="Inter, system-ui, sans-serif"><rect width="100" height="60" x="20" y="70" fill="#FFF" stroke="#E2E8F0" rx="8"/><text x="30" y="88" fill="#64748B" font-size="9">Projets actifs</text><text x="30" y="112" fill="#0F172A" font-size="20" font-weight="700">5</text><rect width="100" height="60" x="128" y="70" fill="#FFF" stroke="#E2E8F0" rx="8"/><text x="138" y="88" fill="#64748B" font-size="9">Tâches actives</text><text x="138" y="112" fill="#0F172A" font-size="20" font-weight="700">60</text><rect width="100" height="60" x="236" y="70" fill="#FFF" stroke="#E2E8F0" rx="8"/><text x="246" y="88" fill="#64748B" font-size="9">En retard</text><text x="246" y="112" fill="#EF4444" font-size="20" font-weight="700">18</text><rect width="116" height="60" x="344" y="70" fill="#FFF" stroke="#E2E8F0" rx="8"/><text x="354" y="88" fill="#64748B" font-size="9">Terminées</text><text x="354" y="112" fill="#10B981" font-size="20" font-weight="700">2</text></g><rect width="215" height="130" x="20" y="144" fill="#FFF" stroke="#E2E8F0" rx="8"/><circle cx="127" cy="210" r="42" fill="none" stroke="#10B981" stroke-dasharray="90 190" stroke-width="16"/><circle cx="127" cy="210" r="42" fill="none" stroke="#F59E0B" stroke-dasharray="60 190" stroke-dashoffset="-90" stroke-width="16"/><circle cx="127" cy="210" r="42" fill="none" stroke="#64748B" stroke-dasharray="40 190" stroke-dashoffset="-150" stroke-width="16"/><rect width="215" height="130" x="245" y="144" fill="#FFF" stroke="#E2E8F0" rx="8"/><polyline fill="none" stroke="#6366F1" stroke-linecap="round" stroke-linejoin="round" stroke-width="3" points="260 240 285 225 310 232 335 205 360 215 385 190 410 198 435 175"/></svg>