<svg xmlns="http://www.w3.org/2000/svg" viewBox="0 0 480 300">
  <rect width="480" height="300" fill="#F8FAFC" />
  <rect width="480" height="30" fill="#FFFFFF" />
  <circle cx="16" cy="15" r="4" fill="#EF4444" /><circle cx="30" cy="15" r="4" fill="#F59E0B" /><circle cx="44" cy="15" r="4" fill="#10B981" />
  <text x="20" y="55" font-family="Inter, system-ui, sans-serif" font-size="18" font-weight="700" fill="#0F172A">Projets</text>

  <g>
    <rect x="20" y="72" width="136" height="150" rx="8" fill="#FFFFFF" stroke="#E2E8F0" />
    <rect x="20" y="72" width="136" height="46" fill="#6366F1" />
    <circle cx="32" cy="134" r="5" fill="#6366F1" />
    <text x="44" y="139" font-family="Inter, system-ui, sans-serif" font-size="11" font-weight="600" fill="#0F172A">Mémoire pro.</text>
    <rect x="32" y="150" width="108" height="6" rx="3" fill="#E2E8F0" />
    <rect x="32" y="150" width="60" height="6" rx="3" fill="#10B981" />

    <rect x="172" y="72" width="136" height="150" rx="8" fill="#FFFFFF" stroke="#E2E8F0" />
    <rect x="172" y="72" width="136" height="46" fill="#10B981" />
    <circle cx="184" cy="134" r="5" fill="#10B981" />
    <text x="196" y="139" font-family="Inter, system-ui, sans-serif" font-size="11" font-weight="600" fill="#0F172A">Écoconception</text>
    <rect x="184" y="150" width="108" height="6" rx="3" fill="#E2E8F0" />
    <rect x="184" y="150" width="30" height="6" rx="3" fill="#10B981" />

    <rect x="324" y="72" width="136" height="150" rx="8" fill="#FFFFFF" stroke="#E2E8F0" />
    <rect x="324" y="72" width="136" height="46" fill="#EC4899" />
    <circle cx="336" cy="134" r="5" fill="#EC4899" />
    <text x="348" y="139" font-family="Inter, system-ui, sans-serif" font-size="11" font-weight="600" fill="#0F172A">Portfolio</text>
    <rect x="336" y="150" width="108" height="6" rx="3" fill="#E2E8F0" />
    <rect x="336" y="150" width="80" height="6" rx="3" fill="#10B981" />
  </g>
</svg>
