<svg xmlns="http://www.w3.org/2000/svg" viewBox="0 0 480 300">
  <rect width="480" height="300" fill="#F8FAFC" />
  <rect width="480" height="30" fill="#FFFFFF" />
  <circle cx="16" cy="15" r="4" fill="#EF4444" /><circle cx="30" cy="15" r="4" fill="#F59E0B" /><circle cx="44" cy="15" r="4" fill="#10B981" />
  <text x="20" y="55" font-family="Inter, system-ui, sans-serif" font-size="18" font-weight="700" fill="#0F172A">Calendrier</text>

  <g stroke="#E2E8F0">
    <rect x="20" y="70" width="440" height="200" fill="#FFFFFF" />
    <line x1="83" y1="70" x2="83" y2="270" /><line x1="146" y1="70" x2="146" y2="270" />
    <line x1="209" y1="70" x2="209" y2="270" /><line x1="272" y1="70" x2="272" y2="270" />
    <line x1="335" y1="70" x2="335" y2="270" /><line x1="398" y1="70" x2="398" y2="270" />
    <line x1="20" y1="120" x2="460" y2="120" /><line x1="20" y1="170" x2="460" y2="170" /><line x1="20" y1="220" x2="460" y2="220" />
  </g>
  <circle cx="106" cy="140" r="5" fill="#F59E0B" />
  <circle cx="232" cy="140" r="5" fill="#EF4444" />
  <circle cx="295" cy="190" r="5" fill="#6366F1" />
  <circle cx="358" cy="190" r="5" fill="#F59E0B" />
  <circle cx="169" cy="240" r="5" fill="#10B981" />
  <circle cx="421" cy="240" r="5" fill="#6366F1" />
</svg>
