<svg xmlns="http://www.w3.org/2000/svg" viewBox="0 0 480 300"><rect width="480" height="300" fill="#F8FAFC"/><rect width="480" height="30" fill="#FFF"/><circle cx="16" cy="15" r="4" fill="#EF4444"/><circle cx="30" cy="15" r="4" fill="#F59E0B"/><circle cx="44" cy="15" r="4" fill="#10B981"/><text x="20" y="55" fill="#0F172A" font-family="Inter, system-ui, sans-serif" font-size="18" font-weight="700">Kanban</text><g font-family="Inter, system-ui, sans-serif"><rect width="136" height="200" x="20" y="70" fill="#FFF" stroke="#E2E8F0" rx="8"/><text x="32" y="90" fill="#64748B" font-size="11" font-weight="600">À faire</text><rect width="116" height="40" x="30" y="100" fill="#EEF2FF" rx="6"/><rect width="116" height="40" x="30" y="148" fill="#EEF2FF" rx="6"/><rect width="116" height="40" x="30" y="196" fill="#EEF2FF" rx="6"/><rect width="136" height="200" x="172" y="70" fill="#FFF" stroke="#E2E8F0" rx="8"/><text x="184" y="90" fill="#64748B" font-size="11" font-weight="600">En cours</text><rect width="116" height="40" x="182" y="100" fill="#FEF3C7" rx="6"/><rect width="116" height="40" x="182" y="148" fill="#FEF3C7" rx="6"/><rect width="136" height="200" x="324" y="70" fill="#FFF" stroke="#E2E8F0" rx="8"/><text x="336" y="90" fill="#64748B" font-size="11" font-weight="600">Terminé</text><rect width="116" height="40" x="334" y="100" fill="#D1FAE5" rx="6"/><rect width="116" height="40" x="334" y="148" fill="#D1FAE5" rx="6"/><rect width="116" height="40" x="334" y="196" fill="#D1FAE5" rx="6"/></g></svg>