<svg xmlns="http://www.w3.org/2000/svg" viewBox="0 0 480 300"><rect width="480" height="300" fill="#F8FAFC"/><rect width="480" height="30" fill="#FFF"/><circle cx="16" cy="15" r="4" fill="#EF4444"/><circle cx="30" cy="15" r="4" fill="#F59E0B"/><circle cx="44" cy="15" r="4" fill="#10B981"/><text x="20" y="55" fill="#0F172A" font-family="Inter, system-ui, sans-serif" font-size="18" font-weight="700">Projets</text><g><rect width="136" height="150" x="20" y="72" fill="#FFF" stroke="#E2E8F0" rx="8"/><rect width="136" height="46" x="20" y="72" fill="#6366F1"/><circle cx="32" cy="134" r="5" fill="#6366F1"/><text x="44" y="139" fill="#0F172A" font-family="Inter, system-ui, sans-serif" font-size="11" font-weight="600">Mémoire pro.</text><rect width="108" height="6" x="32" y="150" fill="#E2E8F0" rx="3"/><rect width="60" height="6" x="32" y="150" fill="#10B981" rx="3"/><rect width="136" height="150" x="172" y="72" fill="#FFF" stroke="#E2E8F0" rx="8"/><rect width="136" height="46" x="172" y="72" fill="#10B981"/><circle cx="184" cy="134" r="5" fill="#10B981"/><text x="196" y="139" fill="#0F172A" font-family="Inter, system-ui, sans-serif" font-size="11" font-weight="600">Écoconception</text><rect width="108" height="6" x="184" y="150" fill="#E2E8F0" rx="3"/><rect width="30" height="6" x="184" y="150" fill="#10B981" rx="3"/><rect width="136" height="150" x="324" y="72" fill="#FFF" stroke="#E2E8F0" rx="8"/><rect width="136" height="46" x="324" y="72" fill="#EC4899"/><circle cx="336" cy="134" r="5" fill="#EC4899"/><text x="348" y="139" fill="#0F172A" font-family="Inter, system-ui, sans-serif" font-size="11" font-weight="600">Portfolio</text><rect width="108" height="6" x="336" y="150" fill="#E2E8F0" rx="3"/><rect width="80" height="6" x="336" y="150" fill="#10B981" rx="3"/></g></svg>