<svg xmlns="http://www.w3.org/2000/svg" viewBox="0 0 480 300">
  <rect width="480" height="300" fill="#F8FAFC" />
  <rect width="480" height="30" fill="#FFFFFF" />
  <circle cx="16" cy="15" r="4" fill="#EF4444" /><circle cx="30" cy="15" r="4" fill="#F59E0B" /><circle cx="44" cy="15" r="4" fill="#10B981" />
  <text x="20" y="55" font-family="Inter, system-ui, sans-serif" font-size="18" font-weight="700" fill="#0F172A">Kanban</text>

  <g font-family="Inter, system-ui, sans-serif">
    <rect x="20" y="70" width="136" height="200" rx="8" fill="#FFFFFF" stroke="#E2E8F0" />
    <text x="32" y="90" font-size="11" font-weight="600" fill="#64748B">À faire</text>
    <rect x="30" y="100" width="116" height="40" rx="6" fill="#EEF2FF" />
    <rect x="30" y="148" width="116" height="40" rx="6" fill="#EEF2FF" />
    <rect x="30" y="196" width="116" height="40" rx="6" fill="#EEF2FF" />

    <rect x="172" y="70" width="136" height="200" rx="8" fill="#FFFFFF" stroke="#E2E8F0" />
    <text x="184" y="90" font-size="11" font-weight="600" fill="#64748B">En cours</text>
    <rect x="182" y="100" width="116" height="40" rx="6" fill="#FEF3C7" />
    <rect x="182" y="148" width="116" height="40" rx="6" fill="#FEF3C7" />

    <rect x="324" y="70" width="136" height="200" rx="8" fill="#FFFFFF" stroke="#E2E8F0" />
    <text x="336" y="90" font-size="11" font-weight="600" fill="#64748B">Terminé</text>
    <rect x="334" y="100" width="116" height="40" rx="6" fill="#D1FAE5" />
    <rect x="334" y="148" width="116" height="40" rx="6" fill="#D1FAE5" />
    <rect x="334" y="196" width="116" height="40" rx="6" fill="#D1FAE5" />
  </g>
</svg>
